# xmcd
#
# Track frame offsets: 
#        150
#        12540
#        25687
#        34807
#        46170
#        58189
#        67627
#        77567
#        91967
#        101597
#        113572
#        124527
#        138847
#        151290
#
# Disc length: 2183 seconds
#
# Revision: 6
# Processed by: cddbd v1.5.2PL0 Copyright (c) Steve Scherf et al.
# Submitted via: ExactAudioCopy v0.99pb4
#
DISCID=a108850e
DTITLE=Martin, Dean - You'll Always Be The One I Love
DYEAR=1996
DGENRE=Vocal
TTITLE0=Everybody Loves Somebody
TTITLE1=The Door Is Still Open To My Heart
TTITLE2=You'll Always Be the One I Love
TTITLE3=Send Me the Pillow You Dream On
TTITLE4=Houston
TTITLE5=Come Running Back
TTITLE6=Everybody But Me
TTITLE7=Crying Time
TTITLE8=Little Lovely One
TTITLE9=Love, Love, Love
TTITLE10=Snap Your Fingers
TTITLE11=My Heart Cries for You
TTITLE12=Corrine Corrina
TTITLE13=I Can't Help It (If I'm Still In Love With You)
EXTD=YEAR: 2000 ID3G: 28
EXTT0=
EXTT1=
EXTT2=
EXTT3=
EXTT4=
EXTT5=
EXTT6=
EXTT7=
EXTT8=
EXTT9=
EXTT10=
EXTT11=
EXTT12=
EXTT13=(If I'm Still In Love With You)
PLAYORDER=
